<svg width="18" height="18" viewBox="0 0 18 18" fill="none" xmlns="http://www.w3.org/2000/svg">
<path d="M3.27259 14.7272C2.06344 13.518 2.06344 11.5523 3.27259 10.3431L6.10102 7.5147L4.75752 6.1712L1.92909 8.99962C0.991407 9.9373 0.464622 11.2091 0.464622 12.5352C0.464622 13.8612 0.991407 15.133 1.92909 16.0707C2.86677 17.0084 4.13854 17.5352 5.46462 17.5352C6.79071 17.5352 8.06247 17.0084 9.00016 16.0707L11.8286 13.2423L10.4851 11.8988L7.65665 14.7272C6.4475 15.9363 4.48174 15.9363 3.27259 14.7272ZM6.87884 12.5352L12.5357 6.8783L11.1215 5.46409L5.46462 11.1209L6.87884 12.5352ZM9.00016 1.92855L6.17173 4.75698L7.51523 6.10048L10.3437 3.27206C11.5528 2.06291 13.5186 2.0629 14.7277 3.27206C15.9369 4.48121 15.9369 6.44697 14.7277 7.65612L11.8993 10.4845L13.2428 11.828L16.0712 8.99962C17.0089 8.06194 17.5357 6.79017 17.5357 5.46409C17.5357 4.13801 17.0089 2.86624 16.0712 1.92855C15.1335 0.990873 13.8618 0.464089 12.5357 0.464089C11.2096 0.464088 9.93784 0.990873 9.00016 1.92855Z" fill="#141414"/>
</svg>
