<svg width="18" height="19" viewBox="0 0 18 19" fill="none" xmlns="http://www.w3.org/2000/svg">
<path d="M5.5 11L8 14L11.5 9.5L16 15.5H2M18 16.5V2.5C18 1.96957 17.7893 1.46086 17.4142 1.08579C17.0391 0.710714 16.5304 0.5 16 0.5H2C1.46957 0.5 0.960859 0.710714 0.585786 1.08579C0.210714 1.46086 0 1.96957 0 2.5V16.5C0 17.0304 0.210714 17.5391 0.585786 17.9142C0.960859 18.2893 1.46957 18.5 2 18.5H16C16.5304 18.5 17.0391 18.2893 17.4142 17.9142C17.7893 17.5391 18 17.0304 18 16.5Z" fill="#141414"/>
</svg>
