<svg width="20" height="20" viewBox="0 0 20 20" fill="none" xmlns="http://www.w3.org/2000/svg">
<path d="M1.66663 5.00016C1.66663 4.55814 1.84222 4.13421 2.15478 3.82165C2.46734 3.50909 2.89127 3.3335 3.33329 3.3335H16.6666C17.1087 3.3335 17.5326 3.50909 17.8451 3.82165C18.1577 4.13421 18.3333 4.55814 18.3333 5.00016V14.1668C18.3333 14.6089 18.1577 15.0328 17.8451 15.3453C17.5326 15.6579 17.1087 15.8335 16.6666 15.8335H12.845L10.5891 18.0893C10.4329 18.2456 10.2209 18.3333 9.99996 18.3333C9.77899 18.3333 9.56707 18.2456 9.41079 18.0893L7.15496 15.8335H3.33329C2.89127 15.8335 2.46734 15.6579 2.15478 15.3453C1.84222 15.0328 1.66663 14.6089 1.66663 14.1668V5.00016ZM16.6666 5.00016H3.33329V14.1668H7.49996C7.72095 14.1669 7.93288 14.2547 8.08913 14.411L9.99996 16.3218L11.9108 14.411C12.067 14.2547 12.279 14.1669 12.5 14.1668H16.6666V5.00016Z" fill="black"/>
<path d="M11.25 9.5835C11.25 9.91502 11.1183 10.233 10.8838 10.4674C10.6494 10.7018 10.3315 10.8335 9.99996 10.8335C9.66844 10.8335 9.3505 10.7018 9.11608 10.4674C8.88166 10.233 8.74996 9.91502 8.74996 9.5835C8.74996 9.25198 8.88166 8.93403 9.11608 8.69961C9.3505 8.46519 9.66844 8.3335 9.99996 8.3335C10.3315 8.3335 10.6494 8.46519 10.8838 8.69961C11.1183 8.93403 11.25 9.25198 11.25 9.5835ZM14.5833 9.5835C14.5833 9.91502 14.4516 10.233 14.2172 10.4674C13.9828 10.7018 13.6648 10.8335 13.3333 10.8335C13.0018 10.8335 12.6838 10.7018 12.4494 10.4674C12.215 10.233 12.0833 9.91502 12.0833 9.5835C12.0833 9.25198 12.215 8.93403 12.4494 8.69961C12.6838 8.46519 13.0018 8.3335 13.3333 8.3335C13.6648 8.3335 13.9828 8.46519 14.2172 8.69961C14.4516 8.93403 14.5833 9.25198 14.5833 9.5835ZM7.91663 9.5835C7.91663 9.91502 7.78493 10.233 7.55051 10.4674C7.31609 10.7018 6.99815 10.8335 6.66663 10.8335C6.33511 10.8335 6.01716 10.7018 5.78274 10.4674C5.54832 10.233 5.41663 9.91502 5.41663 9.5835C5.41663 9.25198 5.54832 8.93403 5.78274 8.69961C6.01716 8.46519 6.33511 8.3335 6.66663 8.3335C6.99815 8.3335 7.31609 8.46519 7.55051 8.69961C7.78493 8.93403 7.91663 9.25198 7.91663 9.5835Z" fill="black"/>
</svg>
