<svg width="20" height="20" viewBox="0 0 20 20" fill="none" xmlns="http://www.w3.org/2000/svg">
<path d="M16.665 7.91402C16.444 7.91402 16.232 8.00182 16.0757 8.1581C15.9195 8.31438 15.8317 8.52634 15.8317 8.74735V12.2707C15.8308 12.9931 15.5434 13.6857 15.0326 14.1966C14.5217 14.7074 13.8291 14.9948 13.1067 14.9957H8.67917L10.1717 13.5065C10.3237 13.3496 10.408 13.1392 10.4064 12.9207C10.4048 12.7022 10.3175 12.493 10.1632 12.3383C10.0089 12.1836 9.80001 12.0956 9.58151 12.0934C9.36301 12.0912 9.15238 12.1749 8.995 12.3265L6.075 15.239C5.91871 15.3953 5.83063 15.6071 5.83 15.8282V15.829C5.83 15.8482 5.84 15.864 5.84083 15.8832C5.8453 16.0857 5.92945 16.2782 6.075 16.419L8.99333 19.339C9.1505 19.4908 9.361 19.5748 9.5795 19.5729C9.798 19.571 10.007 19.4834 10.1615 19.3289C10.316 19.1744 10.4037 18.9653 10.4056 18.7469C10.4075 18.5284 10.3235 18.3179 10.1717 18.1607L8.67417 16.6624H13.1058C14.2702 16.661 15.3864 16.1979 16.2097 15.3746C17.0331 14.5513 17.4962 13.435 17.4975 12.2707V8.74735C17.4975 8.52634 17.4097 8.31438 17.2534 8.1581C17.0971 8.00182 16.886 7.91402 16.665 7.91402ZM11.3233 5.00068L9.8275 6.49652C9.74791 6.57339 9.68442 6.66534 9.64075 6.76701C9.59707 6.86868 9.57409 6.97803 9.57312 7.08868C9.57216 7.19933 9.59325 7.30907 9.63515 7.41148C9.67705 7.51389 9.73893 7.60694 9.81717 7.68518C9.89541 7.76342 9.98846 7.8253 10.0909 7.8672C10.1933 7.9091 10.303 7.93019 10.4137 7.92923C10.5243 7.92827 10.6337 7.90528 10.7353 7.8616C10.837 7.81793 10.929 7.75444 11.0058 7.67485L13.9225 4.75818C14.0789 4.60149 14.1667 4.38915 14.1667 4.16777C14.1667 3.94639 14.0789 3.73405 13.9225 3.57735L11.0058 0.660684C10.8487 0.508886 10.6382 0.424891 10.4197 0.426789C10.2012 0.428688 9.99216 0.516329 9.83765 0.670836C9.68314 0.825342 9.5955 1.03435 9.59361 1.25285C9.59171 1.47135 9.6757 1.68185 9.8275 1.83902L11.3225 3.33402H6.89167C5.7274 3.33556 4.61126 3.79875 3.78799 4.62201C2.96473 5.44527 2.50154 6.56142 2.5 7.72568V11.2499C2.5 11.4709 2.5878 11.6828 2.74408 11.8391C2.90036 11.9954 3.11232 12.0832 3.33333 12.0832C3.55435 12.0832 3.76631 11.9954 3.92259 11.8391C4.07887 11.6828 4.16667 11.4709 4.16667 11.2499V7.72568C4.16777 7.00316 4.45534 6.31056 4.96631 5.79974C5.47729 5.28892 6.16998 5.00157 6.8925 5.00068H11.3233Z" fill="#FF453A"/>
</svg>
