<svg width="18" height="18" viewBox="0 0 18 18" fill="none" xmlns="http://www.w3.org/2000/svg">
<path d="M9.00008 11.5C9.67508 11.5 10.2501 11.25 10.7584 10.7583C11.2501 10.25 11.5001 9.67496 11.5001 8.99996C11.5001 8.32496 11.2501 7.74996 10.7584 7.24163C10.2501 6.74996 9.67508 6.49996 9.00008 6.49996C8.32508 6.49996 7.75008 6.74996 7.24175 7.24163C6.75008 7.74996 6.50008 8.32496 6.50008 8.99996C6.50008 9.67496 6.75008 10.25 7.24175 10.7583C7.75008 11.25 8.32508 11.5 9.00008 11.5ZM9.00008 0.666626C11.2917 0.666626 13.2501 1.49996 14.8751 3.12496C16.5001 4.74996 17.3334 6.70829 17.3334 8.99996V10.2083C17.3334 11.0416 17.0417 11.75 16.5001 12.3333C15.9167 12.8916 15.2501 13.1666 14.4167 13.1666C13.4167 13.1666 12.5917 12.75 11.9667 11.9166C11.1334 12.75 10.1501 13.1666 9.00008 13.1666C7.85841 13.1666 6.87508 12.75 6.05008 11.95C5.25008 11.125 4.83341 10.15 4.83341 8.99996C4.83341 7.85829 5.25008 6.87496 6.05008 6.04996C6.87508 5.24996 7.85841 4.83329 9.00008 4.83329C10.1501 4.83329 11.1251 5.24996 11.9501 6.04996C12.7501 6.87496 13.1667 7.85829 13.1667 8.99996V10.2083C13.1667 10.55 13.3001 10.85 13.5501 11.1083C13.8001 11.3666 14.0917 11.5 14.4167 11.5C14.7667 11.5 15.0584 11.3666 15.3084 11.1083C15.5584 10.85 15.6667 10.55 15.6667 10.2083V8.99996C15.6667 7.17496 15.0251 5.60829 13.7084 4.29163C12.3917 2.97496 10.8251 2.33329 9.00008 2.33329C7.17508 2.33329 5.60841 2.97496 4.29175 4.29163C2.97508 5.60829 2.33341 7.17496 2.33341 8.99996C2.33341 10.825 2.97508 12.3916 4.29175 13.7083C5.60841 15.025 7.17508 15.6666 9.00008 15.6666H13.1667V17.3333H9.00008C6.70841 17.3333 4.75008 16.5 3.12508 14.875C1.50008 13.25 0.666748 11.2916 0.666748 8.99996C0.666748 6.70829 1.50008 4.74996 3.12508 3.12496C4.75008 1.49996 6.70841 0.666626 9.00008 0.666626Z" fill="#141414"/>
</svg>
