<svg width="32" height="32" viewBox="0 0 32 32" fill="none" xmlns="http://www.w3.org/2000/svg">
<path d="M21.3334 16C21.3334 15.2928 21.6143 14.6145 22.1144 14.1144C22.6145 13.6143 23.2928 13.3333 24 13.3333C24.7073 13.3333 25.3856 13.6143 25.8857 14.1144C26.3858 14.6145 26.6667 15.2928 26.6667 16C26.6667 16.7073 26.3858 17.3855 25.8857 17.8856C25.3856 18.3857 24.7073 18.6667 24 18.6667C23.2928 18.6667 22.6145 18.3857 22.1144 17.8856C21.6143 17.3855 21.3334 16.7073 21.3334 16ZM13.3334 16C13.3334 15.2928 13.6143 14.6145 14.1144 14.1144C14.6145 13.6143 15.2928 13.3333 16 13.3333C16.7073 13.3333 17.3856 13.6143 17.8857 14.1144C18.3858 14.6145 18.6667 15.2928 18.6667 16C18.6667 16.7073 18.3858 17.3855 17.8857 17.8856C17.3856 18.3857 16.7073 18.6667 16 18.6667C15.2928 18.6667 14.6145 18.3857 14.1144 17.8856C13.6143 17.3855 13.3334 16.7073 13.3334 16ZM5.33337 16C5.33337 15.2928 5.61433 14.6145 6.11442 14.1144C6.61452 13.6143 7.2928 13.3333 8.00004 13.3333C8.70728 13.3333 9.38556 13.6143 9.88566 14.1144C10.3858 14.6145 10.6667 15.2928 10.6667 16C10.6667 16.7073 10.3858 17.3855 9.88566 17.8856C9.38556 18.3857 8.70728 18.6667 8.00004 18.6667C7.2928 18.6667 6.61452 18.3857 6.11442 17.8856C5.61433 17.3855 5.33337 16.7073 5.33337 16Z" fill="black"/>
</svg>
