<svg width="18" height="13" viewBox="0 0 18 13" fill="none" xmlns="http://www.w3.org/2000/svg">
<path d="M12.3334 11.1666V12.8333H0.666748V11.1666C0.666748 11.1666 0.666748 7.8333 6.50008 7.8333C12.3334 7.8333 12.3334 11.1666 12.3334 11.1666ZM9.41675 3.24996C9.41675 2.6731 9.24569 2.10919 8.9252 1.62955C8.60471 1.14991 8.14919 0.77607 7.61624 0.555314C7.08329 0.334558 6.49685 0.276799 5.93107 0.389339C5.36529 0.501879 4.84559 0.779665 4.43769 1.18757C4.02978 1.59547 3.752 2.11517 3.63946 2.68095C3.52692 3.24673 3.58468 3.83317 3.80543 4.36612C4.02619 4.89907 4.40002 5.3546 4.87967 5.67508C5.35931 5.99557 5.92322 6.16663 6.50008 6.16663C7.27363 6.16663 8.01549 5.85934 8.56248 5.31236C9.10946 4.76538 9.41675 4.02351 9.41675 3.24996ZM12.2834 7.8333C12.7957 8.22975 13.2149 8.73366 13.5115 9.30955C13.8081 9.88545 13.9748 10.5193 14.0001 11.1666V12.8333H17.3334V11.1666C17.3334 11.1666 17.3334 8.14163 12.2834 7.8333ZM11.5001 0.333296C10.9265 0.330102 10.3655 0.501592 9.89175 0.824963C10.3979 1.53224 10.6701 2.3802 10.6701 3.24996C10.6701 4.11972 10.3979 4.96768 9.89175 5.67496C10.3655 5.99833 10.9265 6.16982 11.5001 6.16663C12.2736 6.16663 13.0155 5.85934 13.5625 5.31236C14.1095 4.76538 14.4167 4.02351 14.4167 3.24996C14.4167 2.47641 14.1095 1.73455 13.5625 1.18757C13.0155 0.640587 12.2736 0.333296 11.5001 0.333296Z" fill="#141414"/>
</svg>
