<svg width="16" height="20" viewBox="0 0 16 20" fill="none" xmlns="http://www.w3.org/2000/svg">
<path d="M14.665 7.91414C14.444 7.91414 14.232 8.00194 14.0757 8.15822C13.9195 8.3145 13.8317 8.52646 13.8317 8.74747V12.2708C13.8308 12.9933 13.5434 13.6859 13.0326 14.1967C12.5217 14.7075 11.8291 14.9949 11.1067 14.9958H6.67917L8.17167 13.5066C8.3237 13.3497 8.40801 13.1393 8.40642 12.9208C8.40484 12.7023 8.3175 12.4931 8.1632 12.3384C8.00891 12.1837 7.80001 12.0957 7.58151 12.0935C7.36301 12.0913 7.15238 12.175 6.995 12.3266L4.075 15.2391C3.91871 15.3955 3.83063 15.6073 3.83 15.8283V15.8291C3.83 15.8483 3.84 15.8641 3.84083 15.8833C3.8453 16.0858 3.92945 16.2783 4.075 16.4191L6.99333 19.3391C7.1505 19.4909 7.361 19.5749 7.5795 19.573C7.798 19.5711 8.00701 19.4835 8.16152 19.329C8.31602 19.1745 8.40366 18.9655 8.40556 18.747C8.40746 18.5285 8.32347 18.318 8.17167 18.1608L6.67417 16.6625H11.1058C12.2702 16.6611 13.3864 16.198 14.2097 15.3747C15.0331 14.5514 15.4962 13.4351 15.4975 12.2708V8.74747C15.4975 8.52646 15.4097 8.3145 15.2534 8.15822C15.0971 8.00194 14.886 7.91414 14.665 7.91414ZM9.32333 5.00081L7.8275 6.49664C7.74791 6.57351 7.68442 6.66547 7.64075 6.76714C7.59707 6.86881 7.57409 6.97816 7.57312 7.08881C7.57216 7.19945 7.59325 7.30919 7.63515 7.4116C7.67705 7.51402 7.73893 7.60706 7.81717 7.6853C7.89541 7.76355 7.98846 7.82542 8.09087 7.86732C8.19328 7.90923 8.30302 7.93031 8.41367 7.92935C8.52432 7.92839 8.63367 7.9054 8.73534 7.86172C8.83701 7.81805 8.92896 7.75457 9.00583 7.67497L11.9225 4.75831C12.0789 4.60161 12.1667 4.38927 12.1667 4.16789C12.1667 3.94651 12.0789 3.73417 11.9225 3.57747L9.00583 0.660806C8.84866 0.509008 8.63816 0.425013 8.41967 0.426911C8.20117 0.42881 7.99216 0.516451 7.83765 0.670958C7.68314 0.825464 7.5955 1.03447 7.59361 1.25297C7.59171 1.47147 7.6757 1.68197 7.8275 1.83914L9.3225 3.33414H4.89167C3.7274 3.33568 2.61126 3.79887 1.78799 4.62213C0.964731 5.4454 0.501543 6.56154 0.5 7.72581V11.25C0.5 11.471 0.587797 11.6829 0.744078 11.8392C0.900358 11.9955 1.11232 12.0833 1.33333 12.0833C1.55435 12.0833 1.76631 11.9955 1.92259 11.8392C2.07887 11.6829 2.16667 11.471 2.16667 11.25V7.72581C2.16777 7.00329 2.45534 6.31069 2.96631 5.79986C3.47729 5.28904 4.16998 5.00169 4.8925 5.00081H9.32333Z" fill="black"/>
</svg>
