<svg width="28" height="28" viewBox="0 0 28 28" fill="none" xmlns="http://www.w3.org/2000/svg">
<g clip-path="url(#clip0_66_1922)">
<rect width="28" height="28" rx="14" fill="#D9D9D9"/>
<g clip-path="url(#clip1_66_1922)">
<path d="M14 18.4286C15.5155 18.4286 16.969 17.8265 18.0406 16.7549C19.1122 15.6833 19.7143 14.2298 19.7143 12.7143C19.7143 11.1988 19.1122 9.74531 18.0406 8.67368C16.969 7.60204 15.5155 7 14 7C12.4845 7 11.031 7.60204 9.95939 8.67368C8.88775 9.74531 8.28571 11.1988 8.28571 12.7143C8.28571 14.2298 8.88775 15.6833 9.95939 16.7549C11.031 17.8265 12.4845 18.4286 14 18.4286ZM11.9598 20.5714C7.5625 20.5714 4 24.1339 4 28.5312C4 29.2634 4.59375 29.8571 5.32589 29.8571H22.6741C23.4062 29.8571 24 29.2634 24 28.5312C24 24.1339 20.4375 20.5714 16.0402 20.5714H11.9598Z" fill="white"/>
</g>
</g>
<rect x="0.5" y="0.5" width="27" height="27" rx="13.5" stroke="#D9D9D9"/>
<defs>
<clipPath id="clip0_66_1922">
<rect width="28" height="28" rx="14" fill="white"/>
</clipPath>
<clipPath id="clip1_66_1922">
<rect width="20" height="22.8571" fill="white" transform="translate(4 7)"/>
</clipPath>
</defs>
</svg>
