<svg width="18" height="21" viewBox="0 0 18 21" fill="none" xmlns="http://www.w3.org/2000/svg">
<path d="M16.5711 9.58581L8.43935 17.7175C7.68921 18.4677 6.67179 18.8891 5.61093 18.8891C4.55006 18.8891 3.53264 18.4677 2.7825 17.7175C2.03235 16.9674 1.61093 15.95 1.61093 14.8891C1.61092 13.8282 2.03235 12.8108 2.7825 12.0607L11.6213 3.22185C12.0902 2.75301 12.7261 2.48962 13.3891 2.48962C14.0521 2.48962 14.688 2.75301 15.1569 3.22185C15.6257 3.69069 15.8891 4.32658 15.8891 4.98962C15.8891 5.65266 15.6257 6.28854 15.1569 6.75738L7.73224 14.182C7.54471 14.3695 7.29035 14.4749 7.02514 14.4749C6.75992 14.4749 6.50557 14.3695 6.31803 14.182C6.1305 13.9945 6.02514 13.7401 6.02514 13.4749C6.02514 13.2097 6.13049 12.9553 6.31803 12.7678L13.0355 6.05028L11.9749 4.98962L5.25737 11.7071C4.78853 12.176 4.52514 12.8119 4.52514 13.4749C4.52514 14.1379 4.78853 14.7738 5.25737 15.2427C5.72621 15.7115 6.3621 15.9749 7.02514 15.9749C7.68818 15.9749 8.32406 15.7115 8.79291 15.2427L16.2175 7.81804C16.9677 7.0679 17.3891 6.05048 17.3891 4.98962C17.3891 3.92875 16.9677 2.91134 16.2175 2.16119C15.4674 1.41105 14.45 0.989618 13.3891 0.989618C12.3282 0.989618 11.3108 1.41105 10.5607 2.16119L1.72184 11C0.690387 12.0315 0.110924 13.4304 0.110924 14.8891C0.110924 16.3478 0.690387 17.7467 1.72184 18.7782C2.75329 19.8096 4.15223 20.3891 5.61092 20.3891C7.06962 20.3891 8.46856 19.8096 9.50001 18.7782L17.6317 10.6465L16.5711 9.58581Z" fill="#999999"/>
</svg>
