<svg width="18" height="18" viewBox="0 0 18 18" fill="none" xmlns="http://www.w3.org/2000/svg">
<path d="M13.9167 13.4916C13.7001 12.825 13.0751 12.3333 12.3334 12.3333H11.5001V9.83329C11.5001 9.61228 11.4123 9.40032 11.256 9.24404C11.0997 9.08776 10.8878 8.99996 10.6667 8.99996H5.66675V7.33329H7.33341C7.55443 7.33329 7.76639 7.24549 7.92267 7.08921C8.07895 6.93293 8.16675 6.72097 8.16675 6.49996V4.83329H9.83341C10.2754 4.83329 10.6994 4.6577 11.0119 4.34514C11.3245 4.03258 11.5001 3.60865 11.5001 3.16663V2.82496C12.4971 3.22693 13.382 3.86452 14.0788 4.68315C14.7756 5.50179 15.2637 6.47708 15.5012 7.52555C15.7387 8.57402 15.7187 9.66444 15.4427 10.7035C15.1668 11.7425 14.6432 12.6992 13.9167 13.4916ZM8.16675 15.6083C4.87508 15.2 2.33341 12.4 2.33341 8.99996C2.33341 8.48329 2.40008 7.98329 2.50841 7.50829L6.50008 11.5V12.3333C6.50008 12.7753 6.67568 13.1992 6.98824 13.5118C7.3008 13.8244 7.72472 14 8.16675 14M9.00008 0.666626C7.90573 0.666626 6.8221 0.882174 5.81105 1.30096C4.80001 1.71975 3.88135 2.33358 3.10752 3.1074C1.54472 4.67021 0.666748 6.78982 0.666748 8.99996C0.666748 11.2101 1.54472 13.3297 3.10752 14.8925C3.88135 15.6663 4.80001 16.2802 5.81105 16.699C6.8221 17.1177 7.90573 17.3333 9.00008 17.3333C11.2102 17.3333 13.3298 16.4553 14.8926 14.8925C16.4554 13.3297 17.3334 11.2101 17.3334 8.99996C17.3334 7.90561 17.1179 6.82198 16.6991 5.81093C16.2803 4.79988 15.6665 3.88122 14.8926 3.1074C14.1188 2.33358 13.2002 1.71975 12.1891 1.30096C11.1781 0.882174 10.0944 0.666626 9.00008 0.666626Z" fill="#141414"/>
</svg>
