<svg width="24" height="24" viewBox="0 0 24 24" fill="none" xmlns="http://www.w3.org/2000/svg">
<g clip-path="url(#clip0_29_4401)">
<path d="M18.5505 12.7515C18.5205 9.7125 21.0285 8.2545 21.141 8.1825C19.731 6.12 17.535 5.8365 16.752 5.805C14.883 5.616 13.1055 6.906 12.156 6.906C11.2095 6.906 9.7455 5.8335 8.196 5.862C6.159 5.892 4.281 7.047 3.231 8.871C1.1145 12.543 2.6895 17.985 4.752 20.9625C5.76 22.4205 6.9615 24.0585 8.5395 24C10.059 23.94 10.6335 23.016 12.471 23.016C14.3085 23.016 14.8245 24 16.4325 23.9685C18.0675 23.9385 19.104 22.482 20.1045 21.0195C21.2625 19.3275 21.738 17.691 21.7665 17.607C21.7305 17.5905 18.5775 16.383 18.546 12.753L18.5505 12.7515ZM15.5295 3.8325C16.3665 2.817 16.932 1.407 16.7775 0C15.5715 0.0495 14.109 0.804 13.2435 1.818C12.4665 2.718 11.787 4.1535 11.9685 5.532C13.3155 5.637 14.691 4.848 15.528 3.834L15.5295 3.8325Z" fill="black"/>
</g>
<defs>
<clipPath id="clip0_29_4401">
<rect width="24" height="24" fill="white"/>
</clipPath>
</defs>
</svg>
