<svg width="20" height="20" viewBox="0 0 20 20" fill="none" xmlns="http://www.w3.org/2000/svg">
<rect x="1" y="1" width="18" height="18" rx="9" fill="#FFAE00"/>
<g clip-path="url(#clip0_29_6457)">
<path d="M8.84594 13.1231L6.43 10.7072C6.35185 10.629 6.30796 10.5231 6.30796 10.4125C6.30796 10.302 6.35185 10.1961 6.43 10.1179C6.50814 10.0398 6.61412 9.99588 6.72462 9.99588C6.83513 9.99588 6.94111 10.0398 7.01925 10.1179L8.49239 11.5911L8.72809 11.3554L6.54785 9.17511C6.46971 9.09697 6.42581 8.99099 6.42581 8.88048C6.42581 8.76998 6.46971 8.66399 6.54785 8.58585C6.62599 8.50771 6.73197 8.46382 6.84247 8.46382C6.95298 8.46382 7.05896 8.50771 7.1371 8.58585L9.31735 10.7661L9.55305 10.5304L7.01925 7.9966C6.94111 7.91846 6.89721 7.81248 6.89721 7.70197C6.89721 7.59146 6.94111 7.48548 7.01925 7.40734C7.09739 7.3292 7.20337 7.2853 7.31388 7.2853C7.42439 7.2853 7.53037 7.3292 7.60851 7.40734L10.1423 9.94114L10.378 9.70544L8.31561 7.64305C8.23747 7.56491 8.19357 7.45892 8.19357 7.34842C8.19357 7.23791 8.23747 7.13193 8.31561 7.05379C8.39375 6.97565 8.49973 6.93175 8.61024 6.93175C8.72075 6.93175 8.82673 6.97565 8.90487 7.05379L11.6744 9.82329L11.8511 9.64651L11.3515 8.48215C11.2737 8.30065 11.2831 8.09324 11.3703 7.91646L11.4952 7.66897C11.5239 7.61248 11.5681 7.56531 11.6225 7.53301C11.677 7.50071 11.7396 7.4846 11.8029 7.48658C11.8662 7.48856 11.9277 7.50854 11.9801 7.54418C12.0324 7.57983 12.0736 7.62965 12.0986 7.68783L13.1829 10.2004C13.6048 11.1927 13.3856 12.3547 12.6172 13.1231C11.5754 14.1649 9.88775 14.1649 8.84594 13.1231Z" fill="white"/>
</g>
<rect x="1" y="1" width="18" height="18" rx="9" stroke="white" stroke-width="2"/>
<defs>
<clipPath id="clip0_29_6457">
<rect width="8" height="8" fill="white" transform="translate(6 6)"/>
</clipPath>
</defs>
</svg>
