<svg width="24" height="24" viewBox="0 0 24 24" fill="none" xmlns="http://www.w3.org/2000/svg">
<path d="M6.6 22.5H3C1.89543 22.5 1 21.6046 1 20.5V11.4351C1 10.5184 1.41914 9.65195 2.13789 9.08294L9.51719 3.24099C10.972 2.08924 13.028 2.08924 14.4828 3.24099L21.8621 9.08294C22.5809 9.65195 23 10.5184 23 11.4351V20.5C23 21.6046 22.1046 22.5 21 22.5H17.4C16.2954 22.5 15.4 21.6046 15.4 20.5V15.9655C15.4 15.0878 15.0606 14.2441 14.4527 13.6109C13.1146 12.2171 10.8854 12.2171 9.54728 13.6109C8.93943 14.2441 8.6 15.0878 8.6 15.9655V20.5C8.6 21.6046 7.70457 22.5 6.6 22.5Z" stroke="#999999" stroke-width="2" stroke-linecap="round" stroke-linejoin="round"/>
</svg>
