<svg width="24" height="24" viewBox="0 0 24 24" fill="none" xmlns="http://www.w3.org/2000/svg">
<path d="M6.6 23.5H3C1.34315 23.5 0 22.1569 0 20.5V11.4351C0 10.2128 0.558853 9.05757 1.51719 8.29889L8.89649 2.45695C10.715 1.01725 13.285 1.01725 15.1035 2.45695L22.4828 8.29889C23.4411 9.05757 24 10.2128 24 11.4351V20.5C24 22.1569 22.6569 23.5 21 23.5H17.4C15.7431 23.5 14.4 22.1569 14.4 20.5V15.9655C14.4 15.346 14.1604 14.7504 13.7313 14.3035C12.7868 13.3196 11.2132 13.3196 10.2687 14.3035C9.8396 14.7504 9.6 15.346 9.6 15.9655V20.5C9.6 22.1569 8.25686 23.5 6.6 23.5Z" fill="black"/>
</svg>
