<svg width="24" height="24" viewBox="0 0 24 24" fill="none" xmlns="http://www.w3.org/2000/svg">
<path d="M16.25 6.5C16.25 8.84721 14.3472 10.75 12 10.75C9.65279 10.75 7.75 8.84721 7.75 6.5C7.75 4.15279 9.65279 2.25 12 2.25C14.3472 2.25 16.25 4.15279 16.25 6.5Z" fill="black"/>
<path d="M19.8642 23H4.13585C3.0769 23 2.21458 22.1665 2.42588 21.1288C2.93549 18.6261 4.85858 14.5 12 14.5C19.1415 14.5 21.0646 18.6261 21.5742 21.1288C21.7855 22.1665 20.9232 23 19.8642 23Z" fill="black"/>
<path d="M16.25 6.5C16.25 8.84721 14.3472 10.75 12 10.75C9.65279 10.75 7.75 8.84721 7.75 6.5C7.75 4.15279 9.65279 2.25 12 2.25C14.3472 2.25 16.25 4.15279 16.25 6.5Z" stroke="black" stroke-width="2" stroke-linecap="round"/>
<path d="M19.8642 23H4.13585C3.0769 23 2.21458 22.1665 2.42588 21.1288C2.93549 18.6261 4.85858 14.5 12 14.5C19.1415 14.5 21.0646 18.6261 21.5742 21.1288C21.7855 22.1665 20.9232 23 19.8642 23Z" stroke="black" stroke-width="2" stroke-linecap="round"/>
</svg>
