<svg width="16" height="20" viewBox="0 0 16 20" fill="none" xmlns="http://www.w3.org/2000/svg">
<path d="M14.665 7.91426C14.444 7.91426 14.232 8.00206 14.0757 8.15834C13.9195 8.31462 13.8317 8.52658 13.8317 8.7476V12.2709C13.8308 12.9934 13.5434 13.686 13.0326 14.1968C12.5217 14.7077 11.8291 14.995 11.1067 14.9959H6.67917L8.17167 13.5068C8.3237 13.3498 8.40801 13.1394 8.40642 12.9209C8.40484 12.7024 8.3175 12.4933 8.1632 12.3385C8.00891 12.1838 7.80001 12.0959 7.58151 12.0937C7.36301 12.0915 7.15238 12.1752 6.995 12.3268L4.075 15.2393C3.91871 15.3956 3.83063 15.6074 3.83 15.8284V15.8293C3.83 15.8484 3.84 15.8643 3.84083 15.8834C3.8453 16.0859 3.92945 16.2784 4.075 16.4193L6.99333 19.3393C7.1505 19.4911 7.361 19.5751 7.5795 19.5732C7.798 19.5713 8.00701 19.4836 8.16152 19.3291C8.31602 19.1746 8.40366 18.9656 8.40556 18.7471C8.40746 18.5286 8.32347 18.3181 8.17167 18.1609L6.67417 16.6626H11.1058C12.2702 16.6613 13.3864 16.1982 14.2097 15.3748C15.0331 14.5515 15.4962 13.4353 15.4975 12.2709V8.7476C15.4975 8.52658 15.4097 8.31462 15.2534 8.15834C15.0971 8.00206 14.886 7.91426 14.665 7.91426ZM9.32333 5.00093L7.8275 6.49676C7.74791 6.57363 7.68442 6.66559 7.64075 6.76726C7.59707 6.86893 7.57409 6.97828 7.57312 7.08893C7.57216 7.19958 7.59325 7.30931 7.63515 7.41172C7.67705 7.51414 7.73893 7.60718 7.81717 7.68542C7.89541 7.76367 7.98846 7.82555 8.09087 7.86745C8.19328 7.90935 8.30302 7.93043 8.41367 7.92947C8.52432 7.92851 8.63367 7.90552 8.73534 7.86185C8.83701 7.81817 8.92896 7.75469 9.00583 7.6751L11.9225 4.75843C12.0789 4.60173 12.1667 4.38939 12.1667 4.16801C12.1667 3.94663 12.0789 3.7343 11.9225 3.5776L9.00583 0.660928C8.84866 0.50913 8.63816 0.425135 8.41967 0.427033C8.20117 0.428932 7.99216 0.516573 7.83765 0.67108C7.68314 0.825586 7.5955 1.0346 7.59361 1.25309C7.59171 1.47159 7.6757 1.68209 7.8275 1.83926L9.3225 3.33426H4.89167C3.7274 3.33581 2.61126 3.79899 1.78799 4.62226C0.964731 5.44552 0.501543 6.56166 0.5 7.72593V11.2501C0.5 11.4711 0.587797 11.6831 0.744078 11.8394C0.900358 11.9956 1.11232 12.0834 1.33333 12.0834C1.55435 12.0834 1.76631 11.9956 1.92259 11.8394C2.07887 11.6831 2.16667 11.4711 2.16667 11.2501V7.72593C2.16777 7.00341 2.45534 6.31081 2.96631 5.79999C3.47729 5.28916 4.16998 5.00181 4.8925 5.00093H9.32333Z" fill="black"/>
</svg>
