<svg width="24" height="24" viewBox="0 0 24 24" fill="none" xmlns="http://www.w3.org/2000/svg">
<path d="M2.20653 11.0905L2.85171 11.8545L2.20653 11.0905ZM9 21.8205V22.8205H10V21.8205H9ZM15 21.8205H14V22.8205H15V21.8205ZM21.7935 11.0905L21.1483 11.8545L21.1483 11.8545L21.7935 11.0905ZM12.3755 3.1376L13.0207 2.37357L13.0207 2.37357L12.3755 3.1376ZM11.6245 3.1376L12.2696 3.90163L12.2696 3.90162L11.6245 3.1376ZM3 11.5352C3 11.6583 2.94575 11.7751 2.85171 11.8545L1.56135 10.3265C1.20537 10.6271 1 11.0693 1 11.5352H3ZM3 21.2384V11.5352H1V21.2384H3ZM2.58207 20.8205C2.81289 20.8205 3 21.0076 3 21.2384H1C1 22.1122 1.70831 22.8205 2.58207 22.8205V20.8205ZM9 20.8205H2.58207V22.8205H9V20.8205ZM10 21.8205V17.8206H8V21.8205H10ZM10 17.8206C10 16.716 10.8954 15.8206 12 15.8206V13.8206C9.79086 13.8206 8 15.6114 8 17.8206H10ZM12 15.8206C13.1046 15.8206 14 16.716 14 17.8206H16C16 15.6114 14.2091 13.8206 12 13.8206V15.8206ZM14 17.8206V21.8205H16V17.8206H14ZM21.4179 20.8205H15V22.8205H21.4179V20.8205ZM21 21.2384C21 21.0076 21.1871 20.8205 21.4179 20.8205V22.8205C22.2917 22.8205 23 22.1121 23 21.2384H21ZM21 11.5352V21.2384H23V11.5352H21ZM21.1483 11.8545C21.0543 11.7751 21 11.6583 21 11.5352H23C23 11.0693 22.7946 10.6271 22.4387 10.3265L21.1483 11.8545ZM11.7304 3.90163L21.1483 11.8545L22.4387 10.3265L13.0207 2.37357L11.7304 3.90163ZM12.2696 3.90162C12.1139 4.03312 11.8861 4.03312 11.7304 3.90163L13.0207 2.37357C12.4313 1.87581 11.5687 1.8758 10.9793 2.37357L12.2696 3.90162ZM2.85171 11.8545L12.2696 3.90163L10.9793 2.37357L1.56135 10.3265L2.85171 11.8545Z" fill="black"/>
</svg>
