<svg width="16" height="21" viewBox="0 0 16 21" fill="none" xmlns="http://www.w3.org/2000/svg">
<path d="M14.665 8.41426C14.444 8.41426 14.232 8.50206 14.0757 8.65834C13.9195 8.81462 13.8317 9.02658 13.8317 9.2476V12.7709C13.8308 13.4934 13.5434 14.186 13.0326 14.6968C12.5217 15.2077 11.8291 15.495 11.1067 15.4959H6.67917L8.17167 14.0068C8.3237 13.8498 8.40801 13.6394 8.40642 13.4209C8.40484 13.2024 8.3175 12.9933 8.1632 12.8385C8.00891 12.6838 7.80001 12.5959 7.58151 12.5937C7.36301 12.5915 7.15238 12.6752 6.995 12.8268L4.075 15.7393C3.91871 15.8956 3.83063 16.1074 3.83 16.3284V16.3293C3.83 16.3484 3.84 16.3643 3.84083 16.3834C3.8453 16.5859 3.92945 16.7784 4.075 16.9193L6.99333 19.8393C7.1505 19.9911 7.361 20.0751 7.5795 20.0732C7.798 20.0713 8.00701 19.9836 8.16152 19.8291C8.31602 19.6746 8.40366 19.4656 8.40556 19.2471C8.40746 19.0286 8.32347 18.8181 8.17167 18.6609L6.67417 17.1626H11.1058C12.2702 17.1613 13.3864 16.6982 14.2097 15.8748C15.0331 15.0515 15.4962 13.9353 15.4975 12.7709V9.2476C15.4975 9.02658 15.4097 8.81462 15.2534 8.65834C15.0971 8.50206 14.886 8.41426 14.665 8.41426ZM9.32333 5.50093L7.8275 6.99676C7.74791 7.07363 7.68442 7.16559 7.64075 7.26726C7.59707 7.36893 7.57409 7.47828 7.57312 7.58893C7.57216 7.69958 7.59325 7.80931 7.63515 7.91172C7.67705 8.01414 7.73893 8.10718 7.81717 8.18542C7.89541 8.26367 7.98846 8.32555 8.09087 8.36745C8.19328 8.40935 8.30302 8.43043 8.41367 8.42947C8.52432 8.42851 8.63367 8.40552 8.73534 8.36185C8.83701 8.31817 8.92896 8.25469 9.00583 8.1751L11.9225 5.25843C12.0789 5.10173 12.1667 4.88939 12.1667 4.66801C12.1667 4.44663 12.0789 4.2343 11.9225 4.0776L9.00583 1.16093C8.84866 1.00913 8.63816 0.925135 8.41967 0.927033C8.20117 0.928932 7.99216 1.01657 7.83765 1.17108C7.68314 1.32559 7.5955 1.5346 7.59361 1.75309C7.59171 1.97159 7.6757 2.18209 7.8275 2.33926L9.3225 3.83426H4.89167C3.7274 3.83581 2.61126 4.29899 1.78799 5.12226C0.964731 5.94552 0.501543 7.06166 0.5 8.22593V11.7501C0.5 11.9711 0.587797 12.1831 0.744078 12.3394C0.900358 12.4956 1.11232 12.5834 1.33333 12.5834C1.55435 12.5834 1.76631 12.4956 1.92259 12.3394C2.07887 12.1831 2.16667 11.9711 2.16667 11.7501V8.22593C2.16777 7.50341 2.45534 6.81081 2.96631 6.29999C3.47729 5.78916 4.16998 5.50181 4.8925 5.50093H9.32333Z" fill="#999999"/>
</svg>
