<svg width="24" height="24" viewBox="0 0 24 24" fill="none" xmlns="http://www.w3.org/2000/svg">
<path fill-rule="evenodd" clip-rule="evenodd" d="M4.49353 10.9764C4.49353 7.39607 7.39595 4.49365 10.9763 4.49365C14.5566 4.49365 17.459 7.39607 17.459 10.9764C17.459 14.5567 14.5566 17.4591 10.9763 17.4591C7.39595 17.4591 4.49353 14.5567 4.49353 10.9764ZM10.9763 1.49365C5.73909 1.49365 1.49353 5.73921 1.49353 10.9764C1.49353 16.2135 5.73909 20.4591 10.9763 20.4591C13.3088 20.4591 15.4447 19.6169 17.0964 18.22L20.8918 22.0154C21.4776 22.6012 22.4274 22.6012 23.0132 22.0154C23.599 21.4297 23.599 20.4799 23.0132 19.8941L19.0582 15.9392C19.9466 14.4955 20.459 12.7958 20.459 10.9764C20.459 5.73921 16.2134 1.49365 10.9763 1.49365Z" fill="#141414"/>
</svg>
