<svg width="28" height="32" viewBox="0 0 28 32" fill="none" xmlns="http://www.w3.org/2000/svg">
<path d="M21.5895 14.8314C21.4517 14.7653 21.3117 14.7017 21.1699 14.6409C20.9229 10.0897 18.436 7.48417 14.2603 7.4575C14.2414 7.45738 14.2226 7.45738 14.2037 7.45738C11.7061 7.45738 9.62887 8.52348 8.35035 10.4635L10.6469 12.0388C11.602 10.5897 13.1009 10.2808 14.2048 10.2808C14.2175 10.2808 14.2303 10.2808 14.243 10.2809C15.6179 10.2897 16.6554 10.6894 17.3269 11.469C17.8155 12.0366 18.1424 12.8208 18.3042 13.8106C17.0852 13.6035 15.7669 13.5398 14.3575 13.6206C10.3875 13.8492 7.8352 16.1646 8.00662 19.382C8.0936 21.014 8.90664 22.418 10.2959 23.3352C11.4704 24.1105 12.9832 24.4897 14.5554 24.4038C16.6317 24.29 18.2605 23.4978 19.3969 22.0493C20.2599 20.9493 20.8057 19.5238 21.0467 17.7277C22.0362 18.3248 22.7695 19.1107 23.1745 20.0553C23.8632 21.6612 23.9034 24.3 21.7502 26.4513C19.8637 28.336 17.596 29.1513 14.1689 29.1765C10.3674 29.1483 7.49232 27.9292 5.62304 25.5528C3.8726 23.3277 2.96797 20.1137 2.93422 16C2.96797 11.8863 3.8726 8.67227 5.62304 6.44712C7.49232 4.07082 10.3673 2.85167 14.1689 2.82342C17.998 2.85188 20.9232 4.0769 22.864 6.46467C23.8157 7.6356 24.5332 9.10813 25.0062 10.8251L27.6974 10.107C27.124 7.9937 26.2219 6.17262 24.9942 4.66233C22.506 1.60111 18.867 0.0325247 14.1783 0H14.1595C9.48029 0.0324117 5.88204 1.60697 3.46474 4.67988C1.31367 7.4144 0.204087 11.2193 0.166804 15.9888L0.166687 16L0.166804 16.0112C0.204087 20.7807 1.31367 24.5857 3.46474 27.3202C5.88204 30.393 9.48029 31.9677 14.1595 32H14.1783C18.3384 31.9712 21.2707 30.882 23.6864 28.4685C26.8469 25.311 26.7517 21.3532 25.71 18.9235C24.9627 17.1812 23.5379 15.766 21.5895 14.8314ZM14.4068 21.5845C12.6668 21.6825 10.8591 20.9015 10.77 19.2287C10.7039 17.9883 11.6527 16.6043 14.5136 16.4395C14.8412 16.4206 15.1627 16.4113 15.4785 16.4113C16.5177 16.4113 17.4899 16.5123 18.3737 16.7055C18.044 20.8225 16.1104 21.491 14.4068 21.5845Z" fill="black"/>
</svg>
